<svg xmlns="http://www.w3.org/2000/svg" version="1.1" xmlns:xlink="http://www.w3.org/1999/xlink"
    xmlns:svgjs="http://svgjs.dev/svgjs" viewBox="0 0 1920 1080">
    <rect width="1920" height="1080" fill="#0000ff"></rect>
    <g
        transform="matrix(-2.112515728529184e-16,-1.15,1.15,-2.112515728529184e-16,288.9316406250002,1586.4213867187502)">
        <path
            d="M0,-1080C-16.399213693782446,-1019.5762069829748,-114.31454620976658,-851.0616976046201,-98.39528216269468,-717.457241897849C-82.4760181156228,-583.8527861910779,81.33412214855915,-441.4203210832138,95.51558428243138,-278.3732657593731C109.6970464163036,-115.32621043553237,15.502141805016937,70.07762955029085,-13.30650935946133,260.8250900451954C-42.11516052393959,451.57255054009994,-80.76942053833095,702.1774576152637,-77.33632270443823,866.111497210054C-73.90322487054551,1030.0455368048442,7.774640672807607,1101.4373719011182,7.292077643894942,1244.429327613937C6.809514614982277,1387.4212833267557,-79.01635460393173,1571.4681194226227,-80.23170087791422,1724.0632314869665C-81.44704715189671,1876.6583435513103,-13.371950146319037,2087.3438719144942,0,2160L 1920 2160 L 1920 -1080 Z"
            fill="url(&quot;#SvgjsLinearGradient1090&quot;)"></path>
        <path
            d="M160,-1080C170.42321407512736,-968.0527727910936,238.81162729549155,-638.0026974112855,222.53928445076414,-408.31663674656147C206.26694160603674,-178.63057608183752,76.57334234153706,89.66273343521337,62.3659429316356,298.11636398834366C48.158543521734146,506.569994541474,101.59073633378549,634.5565056267101,137.2948879913554,842.4051465722202C172.99903964892533,1050.2537875177304,272.80666754228105,1325.6090674234415,276.59085287705517,1545.2082096614047C280.3750382118293,1764.8073518993679,179.43180881284252,2057.534701610234,160,2160L 1920 2160 L 1920 -1080 Z"
            fill="url(&quot;#SvgjsLinearGradient1091&quot;)"></path>
        <path
            d="M320,-1080C340.96839531374025,-1008.297019306195,453.79048989775714,-824.1023152669,445.8103718824415,-649.7821158371703C437.8302538671258,-475.46191640744064,277.5712308872782,-243.53156866559456,272.119291908106,-34.078803421622126C266.6673529289338,175.3739618223503,406.77822709358503,417.1022538240687,413.0987380074083,606.9344756266644C419.4192489212316,796.76669742926,331.60838186032584,915.0871564861934,310.0423573910458,1104.914527393952C288.4763329217658,1294.7418983017108,282.04298409023585,1570.0511223055416,283.70259119172823,1745.8987010732162C285.3621982932206,1921.7462798408908,313.950431865288,2090.983116845536,320,2160L 1920 2160 L 1920 -1080 Z"
            fill="url(&quot;#SvgjsLinearGradient1092&quot;)"></path>
        <path
            d="M480,-1080C481.7308213112322,-941.8174214821411,475.7779867551423,-528.8120731268937,490.3849278673931,-250.9045288928466C504.9918689796439,27.00301534120041,575.2101400744783,320.8729916797525,567.641646673505,587.4452654042822C560.0731532725316,854.0175391288119,459.5809085738038,1086.4366576883783,444.973967461553,1348.5291134543313C430.3670263493022,1610.6215692202843,474.16232791025885,2024.7548522423886,480,2160L 1920 2160 L 1920 -1080 Z"
            fill="url(&quot;#SvgjsLinearGradient1093&quot;)"></path>
        <path
            d="M640,-1080C623.9743406744716,-994.6915722157687,553.6171617617647,-704.5215599343076,543.8460440468293,-568.149433294612C534.074926331894,-431.7773066549164,548.627977159605,-394.11687829454706,581.3732937103875,-261.76724016182663C614.11861026117,-129.41760202910623,723.9328114580957,37.04263666021376,740.3179433515241,225.9483955017104C756.7030752449526,414.85415434320703,681.8299462754354,701.3293725815773,679.6840850709582,871.6673128871531C677.538223866481,1042.0052531927288,730.1255016076152,1111.8610688442332,727.4427761246608,1247.9760373351648C724.7600506417064,1384.0910058260965,678.1615281940083,1536.3531300552704,663.5877321732315,1688.357123832743C649.0139361524548,1840.3611176102154,643.9312886955386,2081.3928539721237,640,2160L 1920 2160 L 1920 -1080 Z"
            fill="url(&quot;#SvgjsLinearGradient1094&quot;)"></path>
        <path
            d="M800,-1080C807.5661673728866,-1022.9341114300153,850.29329300933,-880.0915554912008,845.3970042373196,-737.6046685800915C840.5007154653092,-595.1177816689822,783.4681274881419,-388.6210791844646,770.622267367938,-225.07867853334383C757.776407247734,-61.53627788222309,775.8110348389714,57.45793301648851,768.3218435160959,243.64973532663305C760.8326521932204,429.8415376367776,740.1271339861188,729.9523806120101,725.6871194306851,892.0721353275234C711.2471048752515,1054.1918900430367,669.9271264239152,1101.9294176700862,681.6817561834941,1216.3682636197132C693.4363859430731,1330.8071095693401,776.4951906854078,1421.433254961904,796.2148979881588,1578.705211025285C815.9346052909098,1735.9771670886662,799.3691496646932,2063.1175351708807,800,2160L 1920 2160 L 1920 -1080 Z"
            fill="url(&quot;#SvgjsLinearGradient1095&quot;)"></path>
        <path
            d="M960,-1080C943.5918811002239,-1018.3741919708685,853.922320937696,-842.77217012505,861.5512866013429,-710.2451518252115C869.1802522649898,-577.7181335253729,970.9510726188552,-424.3114271310144,1005.7737939818817,-284.83789020096833C1040.5965153449083,-145.36435327092224,1081.5607099936994,-31.00519386036271,1070.487614779502,126.59606975506506C1059.4145195653048,284.19733337049286,975.1388256971762,508.7539643505578,939.3352226966981,660.7696914915982C903.53161969622,812.7854186326387,845.5824036307257,907.8406659232551,855.6659967766332,1038.6904326013075C865.7495899225406,1169.54019927936,969.0346664227984,1335.9504561818203,999.8367815721429,1445.8682915599131C1030.6388967214873,1555.786126938006,1047.1181512680573,1579.1754934631826,1040.4786876727,1698.1974448698638C1033.8392240773428,1817.219396276545,973.4131146121167,2083.032907478311,960,2160L 1920 2160 L 1920 -1080 Z"
            fill="url(&quot;#SvgjsLinearGradient1096&quot;)"></path>
        <path
            d="M1120,-1080C1137.669846624538,-992.7245581122369,1214.2252455291268,-703.4915871866737,1226.0190797472271,-556.3473486734213C1237.8129139653274,-409.2031101601689,1190.5837270235154,-331.33304985776186,1190.7630053086014,-197.13456892048586C1190.9422835936873,-62.93608798320986,1248.3708320850264,132.2784679345874,1227.0947494577433,248.84353695023472C1205.8186668304602,365.40860596588203,1095.1007035267503,392.2937343131779,1063.106509544902,502.25584517339803C1031.112315563054,612.2179560336182,1027.3537390094714,766.9664171886941,1035.129585566655,908.6162021115557C1042.9054321238384,1050.2659870344173,1103.98393280292,1221.9325093070527,1109.761588888003,1352.1545547105675C1115.539244973086,1482.3766001140823,1068.0891202251535,1555.307566984406,1069.795522077153,1689.948474532645C1071.5019239291526,1824.5893820808838,1111.632587012859,2081.6580790887742,1120,2160L 1920 2160 L 1920 -1080 Z"
            fill="url(&quot;#SvgjsLinearGradient1097&quot;)"></path>
        <path
            d="M1280,-1080C1286.2686659357053,-956.5921307763706,1308.357542038504,-592.8540396262874,1317.611995614232,-339.55278465822346C1326.86644918996,-86.25152969015951,1340.0805555268164,166.09898788912903,1335.5267214543667,439.80752980838355C1330.972887381917,713.5160717276381,1299.5434447552611,1015.9997218253675,1290.2889911795332,1302.6984668573036C1281.0345376038053,1589.3972118892398,1281.7148318632555,2017.1164111428839,1280,2160L 1920 2160 L 1920 -1080 Z"
            fill="url(&quot;#SvgjsLinearGradient1098&quot;)"></path>
        <path
            d="M1440,-1080C1453.281740243435,-1002.8446807488858,1528.0907794128198,-751.1997129900418,1519.6904414606101,-617.0680844933149C1511.2901035084005,-482.93645599658805,1411.8585017866951,-440.6968146255351,1389.597972286743,-275.2102290196388C1367.337442786791,-109.72364341374245,1359.3406919352997,213.23768826209707,1386.127264460898,375.8514291420631C1412.9138369864963,538.4651700220292,1536.4595565664779,565.6657673841804,1550.3174074403332,700.4722162601577C1564.1752583141886,835.2786651361349,1498.764153400092,1025.5702442048837,1469.2743697040303,1184.6901223979264C1439.7845860079685,1343.8100005909691,1378.2577668813005,1492.6398391514015,1373.3787052639623,1655.1914854184138C1368.499643646624,1817.743131685426,1428.896450877327,2075.8652475697354,1440,2160L 1920 2160 L 1920 -1080 Z"
            fill="url(&quot;#SvgjsLinearGradient1099&quot;)"></path>
        <path
            d="M1600,-1080C1611.5221231520118,-999.8292950403982,1670.9431994493393,-764.2205979710627,1669.1327389120702,-598.9757702423888C1667.322278374801,-433.7309425137148,1608.5680382031626,-226.11735280546964,1589.1372367763859,-88.5310336279565C1569.7064353496091,49.05528554955663,1554.507331214862,76.44065336366558,1552.5479303514103,226.54214482268998C1550.5885294879586,376.6436362817144,1576.0677743348615,644.7861515726144,1577.3808315956749,812.07791512619C1578.6938888564882,979.3696786797656,1576.866893551517,1070.690635343982,1560.426273916291,1230.292726144144C1543.9856542810649,1389.8948169443058,1472.141492770367,1614.7392476178522,1478.7371137843186,1769.6904599271616C1485.3327347982702,1924.6416722364709,1579.789518964053,2094.94840998786,1600,2160L 1920 2160 L 1920 -1080 Z"
            fill="url(&quot;#SvgjsLinearGradient1100&quot;)"></path>
        <path
            d="M1760,-1080C1772.2543907362854,-1013.1687226084376,1823.81728441941,-818.7707554149109,1833.526344417712,-679.012335650626C1843.2354044160138,-539.2539158863411,1838.4061889415864,-421.27876558669857,1818.254359989812,-241.44948141429063C1798.1025310380376,-61.62019724188269,1738.59206549547,235.16569538912822,1712.6153707070653,399.96336938382166C1686.6386759186605,564.7610433785151,1671.0593453945273,600.3089714243873,1662.3941912593834,747.3365625538701C1653.7290371242395,894.3641536833528,1650.7621681108492,1119.8670330692562,1660.6244458962021,1282.1289161607183C1670.486723681555,1444.3907992521804,1705.0052656208682,1574.5960137960951,1721.567857971501,1720.907861102642C1738.130450322134,1867.219708409189,1753.59464299525,2086.8179768504406,1760,2160L 1920 2160 L 1920 -1080 Z"
            fill="url(&quot;#SvgjsLinearGradient1101&quot;)"></path>
    </g>
    <defs>
        <linearGradient x1="0.1" y1="0" x2="0" y2="1" id="SvgjsLinearGradient1090">
            <stop stop-color="#0000ff" offset="0"></stop>
            <stop stop-color="#002bff" offset="0"></stop>
        </linearGradient>
        <linearGradient x1="0.1" y1="0" x2="0" y2="1" id="SvgjsLinearGradient1091">
            <stop stop-color="#2626ff" offset="0"></stop>
            <stop stop-color="#264aff" offset="0.08333333333333333"></stop>
        </linearGradient>
        <linearGradient x1="0.1" y1="0" x2="0" y2="1" id="SvgjsLinearGradient1092">
            <stop stop-color="#4b4bff" offset="0"></stop>
            <stop stop-color="#4b69ff" offset="0.16666666666666666"></stop>
        </linearGradient>
        <linearGradient x1="0.1" y1="0" x2="0" y2="1" id="SvgjsLinearGradient1093">
            <stop stop-color="#7171ff" offset="0"></stop>
            <stop stop-color="#7189ff" offset="0.25"></stop>
        </linearGradient>
        <linearGradient x1="0.1" y1="0" x2="0" y2="1" id="SvgjsLinearGradient1094">
            <stop stop-color="#9797ff" offset="0"></stop>
            <stop stop-color="#97a8ff" offset="0.3333333333333333"></stop>
        </linearGradient>
        <linearGradient x1="0.1" y1="0" x2="0" y2="1" id="SvgjsLinearGradient1095">
            <stop stop-color="#bcbcff" offset="0"></stop>
            <stop stop-color="#bcc7ff" offset="0.4166666666666667"></stop>
        </linearGradient>
        <linearGradient x1="0.1" y1="0" x2="0" y2="1" id="SvgjsLinearGradient1096">
            <stop stop-color="#e2e2ff" offset="0"></stop>
            <stop stop-color="#e2e7ff" offset="0.5"></stop>
        </linearGradient>
        <linearGradient x1="0.1" y1="0" x2="0" y2="1" id="SvgjsLinearGradient1097">
            <stop stop-color="#ffffff" offset="0"></stop>
            <stop stop-color="#ffffff" offset="0.5833333333333334"></stop>
        </linearGradient>
        <linearGradient x1="0.1" y1="0" x2="0" y2="1" id="SvgjsLinearGradient1098">
            <stop stop-color="#ffffff" offset="0"></stop>
            <stop stop-color="#ffffff" offset="0.6666666666666666"></stop>
        </linearGradient>
        <linearGradient x1="0.1" y1="0" x2="0" y2="1" id="SvgjsLinearGradient1099">
            <stop stop-color="#ffffff" offset="0"></stop>
            <stop stop-color="#ffffff" offset="0.75"></stop>
        </linearGradient>
        <linearGradient x1="0.1" y1="0" x2="0" y2="1" id="SvgjsLinearGradient1100">
            <stop stop-color="#ffffff" offset="0"></stop>
            <stop stop-color="#ffffff" offset="0.8333333333333334"></stop>
        </linearGradient>
        <linearGradient x1="0.1" y1="0" x2="0" y2="1" id="SvgjsLinearGradient1101">
            <stop stop-color="#ffffff" offset="0"></stop>
            <stop stop-color="#ffffff" offset="0.9166666666666666"></stop>
        </linearGradient>
    </defs>
</svg>