<svg xmlns="http://www.w3.org/2000/svg" version="1.1" xmlns:xlink="http://www.w3.org/1999/xlink" xmlns:svgjs="http://svgjs.dev/svgjs" viewBox="0 0 1920 1080"><rect width="1920" height="1080" fill="#a4e9ff"></rect><g transform="matrix(7.04171909509728e-17,1.15,-1.15,7.04171909509728e-17,1518.171875,-491.74765624999986)"><path d="M0,-1080C-20.61855886109566,-973.5195665016939,-112.64762855784369,-633.6878809968097,-123.71135316657396,-441.11739901016347C-134.77507777530423,-248.5469170235173,-96.31816580845482,-70.42943811442811,-66.38234765238158,75.42289191987697C-36.446529496308344,221.27522195418206,62.43134882788812,246.54177543227487,55.90355576986545,433.9965811956671C49.375762711842775,621.4513869590593,-116.8449202395969,1013.7662778664452,-105.54910600051761,1200.1517265002303C-94.25329176143832,1386.5371751340156,106.08692353758823,1392.3345607484166,123.67844120434117,1552.3092729983782C141.2699588710941,1712.2839852483398,20.613073534056863,2058.7182121663964,0,2160L 1920 2160 L 1920 -1080 Z" fill="url(&quot;#SvgjsLinearGradient1517&quot;)"></path><path d="M160,-1080C145.35320895824145,-1018.7488481037998,54.11218342193227,-833.6536988015196,72.11925374944872,-712.4930886227985C90.12632407696516,-591.3324784440774,254.85886413124285,-495.77666264737536,268.0424219650987,-353.0363389276739C281.22597979895454,-210.29601520797246,170.43773271516744,-24.232206115373856,151.22060075258383,143.94885369541015C132.00346879000023,312.12991350619416,157.08636386081383,528.8358130113585,152.73963018959697,656.0500199370301C148.3928965183801,783.2642268627018,104.92876661709141,784.5688268662677,125.14019872528266,907.2340952494401C145.3516308334739,1029.8993636326124,279.8617842634072,1234.2679756700513,274.0082228387445,1392.0416302360645C268.1546614140818,1549.8152848020777,109.0202006504306,1725.8829610181974,90.01883017730651,1853.87602264552C71.01745970418243,1981.8690842728424,148.33647169621776,2108.9793371075866,160,2160L 1920 2160 L 1920 -1080 Z" fill="url(&quot;#SvgjsLinearGradient1518&quot;)"></path><path d="M320,-1080C333.5994832302511,-961.7320732818932,390.47178384665824,-585.9719696806144,401.5968993815066,-370.3924396913592C412.72201491635496,-154.81290970210395,380.86529765234536,17.916966000357775,386.75069320909006,213.47717993553144C392.63608876583476,409.0373938707051,456.7530237096356,565.4595313243688,436.90927272197473,802.9688439196827C417.06552173431385,1040.4781565149967,287.17306607012057,1412.3611961606962,267.68818728312476,1638.5330555074156C248.20330849612898,1864.704914854135,311.2813645471875,2073.088842584569,320,2160L 1920 2160 L 1920 -1080 Z" fill="url(&quot;#SvgjsLinearGradient1519&quot;)"></path><path d="M480,-1080C495.5728334086949,-993.971301371954,587.8362317547069,-749.3098989251589,573.4370004521696,-563.8278082317241C559.0377691496324,-378.34571753828936,396.61257339625513,-131.5207821465043,393.6046121847764,32.89254416060828C390.59665097329764,197.30587046772087,532.1074581073093,256.46379652002884,555.3892331832972,422.65214961095137C578.671008259285,588.8405027018739,555.908072045285,847.9369290119369,533.2952626407038,1030.0226627061436C510.68245323612246,1212.1083964003503,428.59492052925987,1326.836995560549,419.71237675580926,1515.1665517761917C410.82983298235865,1703.4961079918344,469.9520627926349,2052.527758629365,480,2160L 1920 2160 L 1920 -1080 Z" fill="url(&quot;#SvgjsLinearGradient1520&quot;)"></path><path d="M640,-1080C627.4824878275122,-980.9121447718512,579.0102204972395,-719.6981156314339,564.8949269650731,-485.4728686311074C550.7796334329066,-251.24762163078097,558.3094065834343,117.89404776458858,555.3082388070017,325.35148200195874C552.307071030569,532.8089162393289,518.1962864683194,544.1471683363952,546.8879203064773,759.2717367931136C575.5795541446353,974.396305249832,711.939361887029,1382.6441822077882,727.4580418359494,1616.0988927422693C742.9767217848698,1849.5536032767504,654.5763403059916,2069.3498154570448,640,2160L 1920 2160 L 1920 -1080 Z" fill="url(&quot;#SvgjsLinearGradient1521&quot;)"></path><path d="M800,-1080C791.7218680794573,-1003.9757236909581,735.1133331963429,-807.0425427351911,750.3312084767438,-623.8543421457487C765.5490837571447,-440.66614155630623,874.0886256664878,-190.6444000679482,891.3072516824056,19.129203536654757C908.5258776983235,228.9028071412577,857.9470016502586,465.7122038788116,853.642964572251,634.7872794818691C849.3389274942434,803.8623550849265,876.4218398612156,855.405030219413,865.4830292143599,1033.579657155C854.5442185675042,1211.754284090587,798.9239388935098,1516.0983172878905,788.0101006911165,1703.8350410953906C777.0962624887231,1891.5717649028907,798.0016834485194,2083.9725068492316,800,2160L 1920 2160 L 1920 -1080 Z" fill="url(&quot;#SvgjsLinearGradient1522&quot;)"></path><path d="M960,-1080C967.6016112515981,-996.6115128914232,1017.9547518061395,-738.7216182565691,1005.609667509589,-579.669077348539C993.2645832130386,-420.61653644050887,905.572526297144,-308.76085060856246,885.9294942206976,-125.6847545518196C866.2864621442512,57.39134150492325,879.0309942361641,306.36524479554623,887.7514750509108,518.787498991918C896.4719558656575,731.2097531882898,929.0147949091893,978.821781474232,938.2523791091774,1148.848770626411C947.4899633091654,1318.8757597785898,939.5523767690355,1370.4242290093935,943.1769802508393,1538.9494339049916C946.801583732643,1707.4746388005897,957.1961633751399,2056.4915723174986,960,2160L 1920 2160 L 1920 -1080 Z" fill="url(&quot;#SvgjsLinearGradient1523&quot;)"></path><path d="M1120,-1080C1136.2632287302752,-1009.8674936715637,1236.4544394046227,-807.6254207271181,1217.5793723816512,-659.204962029382C1198.7043053586797,-510.7845033316459,1020.9549308392155,-309.4791158139198,1006.7495978621715,-189.47724781358318C992.5442648851275,-69.47537981324655,1117.4008247054223,-50.19314530865283,1132.3473745193874,60.806245972637726C1147.2939243333524,171.8056372539283,1088.0548762432327,345.0841713731388,1096.4288967459622,476.51909987416013C1104.8029172486918,607.9540283751815,1171.1682854251817,723.0518472492453,1182.5914975357653,849.4158169787657C1194.0147096463488,975.7797867082862,1175.733068153334,1087.1039521303271,1164.968169409463,1234.702918251283C1154.2032706655918,1382.301884372239,1125.4967999741157,1580.7934334130487,1118.0021050725386,1735.0096137045014C1110.5074101709615,1889.225793995954,1119.6670175120898,2089.16826895075,1120,2160L 1920 2160 L 1920 -1080 Z" fill="url(&quot;#SvgjsLinearGradient1524&quot;)"></path><path d="M1280,-1080C1298.0504264013916,-1027.1731935834368,1391.2298240554258,-877.3008687132841,1388.3025584083498,-763.0391615006217C1385.3752927612738,-648.7774542879594,1286.5142188806046,-547.488860785134,1262.4364061175443,-394.4297567240259C1238.358593354484,-241.37065266291785,1226.5243719666682,-19.050180529015876,1243.835681829988,155.31546286602642C1261.1469916933079,329.68110626106875,1352.0412835706807,504.98048718500087,1366.3042652974639,651.764103646228C1380.567247024247,798.5477201074552,1355.266937831372,920.273714903349,1329.4135721906878,1036.0171616333894C1303.5602065500036,1151.7606083634298,1218.4284952690746,1215.6751018968716,1211.1840714533591,1346.2247840264706C1203.9396476376437,1476.7744661560696,1274.4777078719549,1683.686051748728,1285.947029296395,1819.315254410983C1297.416350720835,1954.944457073238,1280.991171549399,2103.219209068497,1280,2160L 1920 2160 L 1920 -1080 Z" fill="url(&quot;#SvgjsLinearGradient1525&quot;)"></path><path d="M1440,-1080C1437.329598207777,-1030.6318779706764,1403.3495686490696,-906.2582928725075,1423.977589246663,-783.7912678240592C1444.6056098442564,-661.324242775611,1545.8092533835302,-519.6437315322758,1563.7681235855596,-345.1978497093104C1581.726993787589,-170.75196788634506,1533.4592409895945,120.74700248133684,1531.7308104588392,262.8840231137328C1530.0023799280839,405.0210437461287,1587.0915015620412,400.7408713150899,1553.397540401028,507.6242740850653C1519.7035792400147,614.5076768550406,1361.6430384066161,752.7988133197556,1329.56704349276,904.1844397335848C1297.4910485789037,1055.570066147414,1355.0900786808775,1257.2662700421297,1360.9415709178902,1415.9380325680406C1366.793063154903,1574.6097950939516,1351.4995920678177,1732.2046869837231,1364.675996914836,1856.2150148890498C1377.8524017618545,1980.2253427943765,1427.445999485806,2109.369169148175,1440,2160L 1920 2160 L 1920 -1080 Z" fill="url(&quot;#SvgjsLinearGradient1526&quot;)"></path><path d="M1600,-1080C1608.5240020844133,-1023.9804029798886,1660.1008480810751,-881.7389570857827,1651.1440125064798,-743.8824178793313C1642.1871769318846,-606.02587867288,1560.9908416163055,-427.24834847597185,1546.2589865524276,-252.86076476129227C1531.5271314885497,-78.47318104661267,1547.8289445907308,122.9598756762775,1562.7528821232122,302.44308440874613C1577.6768196556936,481.9262931412147,1649.124514135771,665.5409622513238,1635.8026117473162,824.0384876335195C1622.4807093588613,982.5360130157152,1489.1273529999858,1097.2001342861167,1482.8214677924834,1253.4282367019205C1476.515582584981,1409.6563391177242,1578.4375451343833,1610.3118082453284,1597.9673005023028,1761.4071021283416C1617.4970558702223,1912.502396011355,1599.6612167503838,2093.5678503547238,1600,2160L 1920 2160 L 1920 -1080 Z" fill="url(&quot;#SvgjsLinearGradient1527&quot;)"></path><path d="M1760,-1080C1763.5291247174505,-965.7840479547658,1793.5856352560695,-597.9782150486154,1781.1747483047025,-394.70428772859475C1768.7638613533354,-191.43036040857405,1707.3047869061236,-53.22143312578919,1685.534678291797,139.64356392012436C1663.7645696774705,332.5085609660379,1631.2365913621838,521.330378267192,1650.554096618743,762.4856945468864C1669.871601875302,1003.6410108265808,1783.198725934276,1353.656410689438,1801.4397098311522,1586.5754615982903C1819.6806937280285,1819.4945125071426,1766.906618305192,2064.429243599715,1760,2160L 1920 2160 L 1920 -1080 Z" fill="url(&quot;#SvgjsLinearGradient1528&quot;)"></path></g><defs><linearGradient x1="0.1" y1="0" x2="0" y2="1" id="SvgjsLinearGradient1517"><stop stop-color="#a4e9ff" offset="0"></stop><stop stop-color="#a4f8ff" offset="0"></stop></linearGradient><linearGradient x1="0.1" y1="0" x2="0" y2="1" id="SvgjsLinearGradient1518"><stop stop-color="#80e0ff" offset="0"></stop><stop stop-color="#80f5ff" offset="0.08333333333333333"></stop></linearGradient><linearGradient x1="0.1" y1="0" x2="0" y2="1" id="SvgjsLinearGradient1519"><stop stop-color="#5cd8ff" offset="0"></stop><stop stop-color="#5cf3ff" offset="0.16666666666666666"></stop></linearGradient><linearGradient x1="0.1" y1="0" x2="0" y2="1" id="SvgjsLinearGradient1520"><stop stop-color="#39cfff" offset="0"></stop><stop stop-color="#39f0ff" offset="0.25"></stop></linearGradient><linearGradient x1="0.1" y1="0" x2="0" y2="1" id="SvgjsLinearGradient1521"><stop stop-color="#15c6ff" offset="0"></stop><stop stop-color="#15edff" offset="0.3333333333333333"></stop></linearGradient><linearGradient x1="0.1" y1="0" x2="0" y2="1" id="SvgjsLinearGradient1522"><stop stop-color="#00b6f0" offset="0"></stop><stop stop-color="#00def0" offset="0.4166666666666667"></stop></linearGradient><linearGradient x1="0.1" y1="0" x2="0" y2="1" id="SvgjsLinearGradient1523"><stop stop-color="#009bcc" offset="0"></stop><stop stop-color="#00bdcc" offset="0.5"></stop></linearGradient><linearGradient x1="0.1" y1="0" x2="0" y2="1" id="SvgjsLinearGradient1524"><stop stop-color="#0080a8" offset="0"></stop><stop stop-color="#009ca8" offset="0.5833333333333334"></stop></linearGradient><linearGradient x1="0.1" y1="0" x2="0" y2="1" id="SvgjsLinearGradient1525"><stop stop-color="#006484" offset="0"></stop><stop stop-color="#007a84" offset="0.6666666666666666"></stop></linearGradient><linearGradient x1="0.1" y1="0" x2="0" y2="1" id="SvgjsLinearGradient1526"><stop stop-color="#004961" offset="0"></stop><stop stop-color="#005961" offset="0.75"></stop></linearGradient><linearGradient x1="0.1" y1="0" x2="0" y2="1" id="SvgjsLinearGradient1527"><stop stop-color="#002e3d" offset="0"></stop><stop stop-color="#00383d" offset="0.8333333333333334"></stop></linearGradient><linearGradient x1="0.1" y1="0" x2="0" y2="1" id="SvgjsLinearGradient1528"><stop stop-color="#001319" offset="0"></stop><stop stop-color="#001719" offset="0.9166666666666666"></stop></linearGradient></defs></svg>